<svg xmlns="http://www.w3.org/2000/svg" xmlns:xlink="http://www.w3.org/1999/xlink" xmlns:serif="http://www.serif.com/" width="100%" height="100%" viewBox="0 0 2481 3508" version="1.1" xml:space="preserve" style="fill-rule:evenodd;clip-rule:evenodd;stroke-linejoin:round;stroke-miterlimit:2;">
    <g transform="matrix(2.640412,0,0,6.997481,-2914.594834,-15575.098255)">
        <g transform="matrix(1,0,0,1,5.302202,0)">
            <path d="M1381.277,2453.46C1381.886,2453.345 1382.979,2453.288 1384.554,2453.288L1402.767,2453.288C1407.847,2453.288 1412.356,2453.566 1416.293,2454.121C1420.23,2454.677 1423.342,2455.425 1425.628,2456.364C1427.914,2457.304 1429.641,2458.334 1430.81,2459.455C1431.978,2460.577 1432.563,2461.761 1432.563,2463.007C1432.563,2465.978 1430.111,2468.456 1425.209,2470.44C1420.306,2472.424 1413.435,2473.416 1404.595,2473.416L1384.554,2473.416C1382.979,2473.416 1381.874,2473.358 1381.239,2473.243C1380.604,2473.128 1380.286,2472.918 1380.286,2472.611C1380.286,2472.285 1380.553,2472.031 1381.086,2471.849C1381.62,2471.667 1382.191,2471.523 1382.801,2471.418C1383.411,2471.312 1383.982,2471.015 1384.516,2470.526C1385.049,2470.037 1385.316,2469.371 1385.316,2468.528L1385.316,2458.176C1385.316,2457.332 1385.049,2456.666 1384.516,2456.177C1383.982,2455.689 1383.411,2455.391 1382.801,2455.286C1382.191,2455.181 1381.62,2455.037 1381.086,2454.855C1380.553,2454.673 1380.286,2454.419 1380.286,2454.093C1380.286,2453.786 1380.616,2453.575 1381.277,2453.46ZM1397.585,2471.288C1398.601,2471.576 1400.658,2471.719 1403.757,2471.719C1409.803,2471.719 1414.235,2471.082 1417.055,2469.807C1419.875,2468.532 1421.284,2466.812 1421.284,2464.646C1421.284,2461.866 1419.354,2459.556 1415.493,2457.716C1411.632,2455.875 1406.628,2454.955 1400.48,2454.955C1398.753,2454.955 1397.585,2455.037 1396.975,2455.2C1396.365,2455.363 1396.061,2455.703 1396.061,2456.221L1396.061,2469.965C1396.061,2470.579 1396.569,2471.02 1397.585,2471.288Z" style="fill:rgb(58,52,43);fill-rule:nonzero;"/>
        </g>
        <path d="M1439.116,2472.007C1439.523,2471.834 1439.955,2471.696 1440.412,2471.59C1440.869,2471.485 1441.301,2471.25 1441.707,2470.886C1442.114,2470.521 1442.317,2470.033 1442.317,2469.419L1442.241,2457.802C1442.241,2457.361 1442.05,2456.987 1441.669,2456.681C1441.288,2456.374 1440.869,2456.163 1440.412,2456.048C1439.955,2455.933 1439.535,2455.804 1439.154,2455.66C1438.773,2455.516 1438.583,2455.348 1438.583,2455.157C1438.583,2454.965 1438.761,2454.807 1439.116,2454.682C1439.472,2454.558 1440.107,2454.419 1441.021,2454.265C1442.545,2453.978 1444.412,2453.695 1446.622,2453.417C1448.832,2453.139 1450.242,2453 1450.852,2453C1452.071,2453 1452.681,2453.288 1452.681,2453.863L1452.605,2457.802L1452.605,2461.368C1455.5,2460.007 1459.285,2459.326 1463.959,2459.326C1468.074,2459.326 1471.16,2459.805 1473.218,2460.764C1475.275,2461.722 1476.838,2463.218 1477.905,2465.25L1480.495,2470.167C1480.851,2470.799 1481.613,2471.303 1482.782,2471.676C1483.95,2472.05 1484.534,2472.39 1484.534,2472.697C1484.534,2473.176 1483.417,2473.416 1481.181,2473.416L1470.513,2473.416C1468.227,2473.416 1467.083,2473.167 1467.083,2472.668C1467.083,2472.419 1467.401,2472.194 1468.036,2471.993C1468.671,2471.791 1469.192,2471.561 1469.598,2471.303C1470.005,2471.044 1470.208,2470.771 1470.208,2470.483C1470.208,2470.31 1470.157,2470.128 1470.055,2469.937L1467.693,2465.393C1467.337,2464.665 1466.944,2464.071 1466.512,2463.611C1466.08,2463.15 1465.331,2462.738 1464.264,2462.374C1463.197,2462.01 1461.876,2461.828 1460.301,2461.828C1458.167,2461.828 1456.351,2462.178 1454.853,2462.877C1453.354,2463.577 1452.605,2464.531 1452.605,2465.738L1452.605,2469.419C1452.605,2470.033 1452.795,2470.521 1453.176,2470.886C1453.557,2471.25 1453.976,2471.485 1454.433,2471.59C1454.891,2471.696 1455.31,2471.839 1455.691,2472.021C1456.072,2472.204 1456.262,2472.429 1456.262,2472.697C1456.262,2473.176 1455.145,2473.416 1452.909,2473.416L1442.012,2473.416C1439.675,2473.416 1438.507,2473.167 1438.507,2472.668C1438.507,2472.4 1438.71,2472.18 1439.116,2472.007Z" style="fill:rgb(58,52,43);fill-rule:nonzero;"/>
        <g transform="matrix(1,0,0,1,-1.514915,0)">
            <path d="M1486.744,2469.448C1486.744,2468.048 1488.281,2466.908 1491.355,2466.026C1494.428,2465.144 1498.632,2464.703 1503.967,2464.703C1505.287,2464.703 1507.32,2464.78 1510.063,2464.933C1509.25,2463.841 1508.259,2463.026 1507.091,2462.489C1505.922,2461.952 1504.043,2461.684 1501.452,2461.684C1498.81,2461.684 1495.711,2462.058 1492.155,2462.805C1491.799,2462.882 1491.444,2462.92 1491.088,2462.92C1490.783,2462.92 1490.491,2462.877 1490.212,2462.791C1489.932,2462.705 1489.792,2462.595 1489.792,2462.46C1489.792,2462.326 1489.945,2462.173 1490.25,2462C1491.317,2461.329 1493.234,2460.716 1496.003,2460.16C1498.772,2459.604 1501.858,2459.326 1505.262,2459.326C1507.599,2459.326 1509.631,2459.46 1511.358,2459.729C1513.086,2459.997 1514.47,2460.39 1515.512,2460.908C1516.553,2461.425 1517.366,2461.938 1517.95,2462.446C1518.534,2462.954 1519.081,2463.553 1519.589,2464.243L1523.323,2469.649C1523.729,2470.224 1524.199,2470.627 1524.732,2470.857C1525.266,2471.087 1525.939,2471.202 1526.752,2471.202L1526.904,2471.202C1527.869,2471.202 1528.352,2471.365 1528.352,2471.691C1528.352,2472.17 1527.514,2472.616 1525.837,2473.028C1524.161,2473.44 1522.383,2473.646 1520.503,2473.646C1517.302,2473.646 1515.143,2472.937 1514.026,2471.518C1510.571,2472.956 1506.126,2473.675 1500.69,2473.675C1496.524,2473.675 1493.158,2473.272 1490.593,2472.467C1488.027,2471.662 1486.744,2470.656 1486.744,2469.448ZM1496.575,2468.815C1496.626,2469.64 1497.4,2470.32 1498.899,2470.857C1500.398,2471.394 1502.366,2471.662 1504.805,2471.662C1506.989,2471.662 1508.869,2471.442 1510.444,2471.001C1512.019,2470.56 1512.806,2470.1 1512.806,2469.62C1512.806,2469.544 1512.781,2469.457 1512.73,2469.362C1512.629,2469.189 1512.387,2468.849 1512.006,2468.341C1511.625,2467.833 1511.333,2467.435 1511.13,2467.147C1510.876,2466.841 1510.165,2466.606 1508.996,2466.443C1507.828,2466.28 1506.558,2466.199 1505.186,2466.199C1502.493,2466.199 1500.385,2466.433 1498.861,2466.903C1497.337,2467.373 1496.575,2468.01 1496.575,2468.815Z" style="fill:rgb(58,52,43);fill-rule:nonzero;"/>
        </g>
        <g transform="matrix(1,0,0,1,-2.272372,0)">
            <path d="M1532.315,2460.85C1532.62,2460.716 1533.255,2460.572 1534.22,2460.419C1535.541,2460.17 1537.166,2459.935 1539.097,2459.714C1541.028,2459.494 1542.323,2459.374 1542.983,2459.355C1544.203,2459.355 1544.812,2459.642 1544.812,2460.217L1544.812,2461.914C1547.607,2460.189 1551.112,2459.326 1555.329,2459.326C1557.462,2459.326 1559.126,2459.556 1560.32,2460.016C1561.514,2460.476 1562.111,2461.071 1562.111,2461.799C1562.111,2462.374 1561.755,2462.834 1561.044,2463.179C1560.333,2463.524 1559.444,2463.706 1558.377,2463.726C1557.107,2463.726 1555.887,2463.476 1554.719,2462.978C1553.551,2462.48 1552.357,2462.23 1551.137,2462.23C1549.715,2462.23 1548.483,2462.527 1547.441,2463.122C1546.4,2463.716 1545.879,2464.521 1545.879,2465.537L1545.879,2469.419C1545.879,2470.033 1546.07,2470.521 1546.451,2470.886C1546.832,2471.25 1547.251,2471.485 1547.708,2471.59C1548.165,2471.696 1548.584,2471.839 1548.966,2472.021C1549.347,2472.204 1549.537,2472.429 1549.537,2472.697C1549.537,2473.176 1548.419,2473.416 1546.184,2473.416L1535.287,2473.416C1532.95,2473.416 1531.781,2473.167 1531.781,2472.668C1531.781,2472.4 1531.985,2472.18 1532.391,2472.007C1532.797,2471.834 1533.229,2471.696 1533.686,2471.59C1534.144,2471.485 1534.576,2471.25 1534.982,2470.886C1535.388,2470.521 1535.592,2470.033 1535.592,2469.419L1535.592,2463.956C1535.592,2463.227 1534.804,2462.642 1533.229,2462.202C1532.264,2461.952 1531.781,2461.684 1531.781,2461.396C1531.781,2461.166 1531.959,2460.984 1532.315,2460.85Z" style="fill:rgb(58,52,43);fill-rule:nonzero;"/>
        </g>
        <g transform="matrix(1,0,0,1,-4.544745,0)">
            <path d="M1567.75,2472.007C1568.156,2471.834 1568.588,2471.696 1569.045,2471.59C1569.503,2471.485 1569.935,2471.25 1570.341,2470.886C1570.747,2470.521 1570.951,2470.033 1570.951,2469.419L1570.951,2463.956C1570.951,2463.227 1570.163,2462.642 1568.588,2462.202C1567.623,2461.952 1567.14,2461.684 1567.14,2461.396C1567.14,2461.166 1567.305,2460.984 1567.636,2460.85C1567.966,2460.716 1568.614,2460.572 1569.579,2460.419C1570.9,2460.17 1572.526,2459.935 1574.456,2459.714C1576.387,2459.494 1577.682,2459.374 1578.342,2459.355C1579.562,2459.355 1580.171,2459.642 1580.171,2460.217L1580.171,2462.087C1581.645,2461.186 1583.486,2460.5 1585.696,2460.031C1587.906,2459.561 1590.281,2459.326 1592.821,2459.326C1598.816,2459.326 1602.804,2460.246 1604.786,2462.087C1607.732,2460.246 1611.923,2459.326 1617.359,2459.326C1621.525,2459.326 1624.561,2459.796 1626.466,2460.735C1628.371,2461.674 1629.882,2463.179 1631,2465.25L1633.591,2470.167C1633.896,2470.799 1634.632,2471.303 1635.801,2471.676C1636.969,2472.05 1637.554,2472.39 1637.554,2472.697C1637.554,2473.176 1636.461,2473.416 1634.277,2473.416L1623.608,2473.416C1621.271,2473.416 1620.103,2473.167 1620.103,2472.668C1620.103,2472.419 1620.433,2472.194 1621.093,2471.993C1621.754,2471.791 1622.287,2471.561 1622.694,2471.303C1623.1,2471.044 1623.303,2470.771 1623.303,2470.483C1623.303,2470.31 1623.253,2470.128 1623.151,2469.937L1620.789,2465.393C1620.535,2464.895 1620.344,2464.531 1620.217,2464.301C1620.09,2464.071 1619.836,2463.764 1619.455,2463.381C1619.074,2462.997 1618.668,2462.714 1618.236,2462.532C1617.804,2462.35 1617.207,2462.187 1616.445,2462.043C1615.683,2461.9 1614.794,2461.828 1613.778,2461.828C1611.695,2461.828 1609.904,2462.173 1608.405,2462.863C1606.907,2463.553 1606.157,2464.512 1606.157,2465.738L1606.157,2469.419C1606.157,2470.033 1606.348,2470.521 1606.729,2470.886C1607.11,2471.25 1607.542,2471.485 1608.024,2471.59C1608.507,2471.696 1608.939,2471.839 1609.32,2472.021C1609.701,2472.204 1609.891,2472.429 1609.891,2472.697C1609.891,2473.176 1608.774,2473.416 1606.538,2473.416L1595.641,2473.416C1593.304,2473.416 1592.136,2473.167 1592.136,2472.668C1592.136,2472.4 1592.326,2472.18 1592.707,2472.007C1593.088,2471.834 1593.52,2471.696 1594.003,2471.59C1594.485,2471.485 1594.917,2471.25 1595.298,2470.886C1595.679,2470.521 1595.87,2470.033 1595.87,2469.419L1595.87,2465.652C1595.87,2465.058 1595.781,2464.545 1595.603,2464.114C1595.425,2463.682 1595.12,2463.275 1594.688,2462.892C1594.257,2462.508 1593.596,2462.221 1592.707,2462.029C1591.818,2461.837 1590.713,2461.742 1589.392,2461.742C1587.208,2461.761 1585.303,2462.13 1583.677,2462.849C1582.051,2463.567 1581.238,2464.531 1581.238,2465.738L1581.238,2469.419C1581.238,2470.033 1581.429,2470.521 1581.81,2470.886C1582.191,2471.25 1582.61,2471.485 1583.067,2471.59C1583.524,2471.696 1583.944,2471.839 1584.325,2472.021C1584.706,2472.204 1584.896,2472.429 1584.896,2472.697C1584.896,2473.176 1583.778,2473.416 1581.543,2473.416L1570.646,2473.416C1568.309,2473.416 1567.14,2473.167 1567.14,2472.668C1567.14,2472.4 1567.344,2472.18 1567.75,2472.007Z" style="fill:rgb(58,52,43);fill-rule:nonzero;"/>
        </g>
        <g transform="matrix(1,0,0,1,-5.680931,0)">
            <path d="M1639.84,2469.448C1639.84,2468.048 1641.377,2466.908 1644.45,2466.026C1647.524,2465.144 1651.728,2464.703 1657.062,2464.703C1658.383,2464.703 1660.415,2464.78 1663.158,2464.933C1662.346,2463.841 1661.355,2463.026 1660.186,2462.489C1659.018,2461.952 1657.138,2461.684 1654.547,2461.684C1651.906,2461.684 1648.807,2462.058 1645.25,2462.805C1644.895,2462.882 1644.539,2462.92 1644.183,2462.92C1643.879,2462.92 1643.586,2462.877 1643.307,2462.791C1643.028,2462.705 1642.888,2462.595 1642.888,2462.46C1642.888,2462.326 1643.04,2462.173 1643.345,2462C1644.412,2461.329 1646.33,2460.716 1649.099,2460.16C1651.867,2459.604 1654.954,2459.326 1658.358,2459.326C1660.694,2459.326 1662.727,2459.46 1664.454,2459.729C1666.181,2459.997 1667.566,2460.39 1668.607,2460.908C1669.649,2461.425 1670.461,2461.938 1671.046,2462.446C1671.63,2462.954 1672.176,2463.553 1672.684,2464.243L1676.418,2469.649C1676.824,2470.224 1677.294,2470.627 1677.828,2470.857C1678.361,2471.087 1679.034,2471.202 1679.847,2471.202L1680,2471.202C1680.965,2471.202 1681.448,2471.365 1681.448,2471.691C1681.448,2472.17 1680.609,2472.616 1678.933,2473.028C1677.256,2473.44 1675.478,2473.646 1673.598,2473.646C1670.398,2473.646 1668.239,2472.937 1667.121,2471.518C1663.666,2472.956 1659.221,2473.675 1653.785,2473.675C1649.619,2473.675 1646.254,2473.272 1643.688,2472.467C1641.123,2471.662 1639.84,2470.656 1639.84,2469.448ZM1649.67,2468.815C1649.721,2469.64 1650.496,2470.32 1651.994,2470.857C1653.493,2471.394 1655.462,2471.662 1657.9,2471.662C1660.085,2471.662 1661.965,2471.442 1663.539,2471.001C1665.114,2470.56 1665.902,2470.1 1665.902,2469.62C1665.902,2469.544 1665.876,2469.457 1665.826,2469.362C1665.724,2469.189 1665.483,2468.849 1665.102,2468.341C1664.721,2467.833 1664.429,2467.435 1664.225,2467.147C1663.971,2466.841 1663.26,2466.606 1662.092,2466.443C1660.923,2466.28 1659.653,2466.199 1658.281,2466.199C1655.589,2466.199 1653.48,2466.433 1651.956,2466.903C1650.432,2467.373 1649.67,2468.01 1649.67,2468.815Z" style="fill:rgb(58,52,43);fill-rule:nonzero;"/>
        </g>
        <g transform="matrix(1,0,0,1,-7.574574,0)">
            <path d="M1697.146,2472.668C1697.146,2472.438 1697.374,2472.237 1697.832,2472.065C1698.289,2471.892 1698.835,2471.743 1699.47,2471.619C1700.105,2471.494 1700.816,2471.269 1701.604,2470.943C1702.391,2470.617 1703.039,2470.215 1703.547,2469.735L1717.264,2456.853C1717.569,2456.489 1717.721,2456.192 1717.721,2455.962C1717.721,2455.789 1717.581,2455.631 1717.302,2455.487C1717.023,2455.344 1716.515,2455.137 1715.778,2454.869C1715.041,2454.601 1714.673,2454.332 1714.673,2454.064C1714.673,2453.546 1715.486,2453.288 1717.111,2453.288L1725.723,2453.288C1727.094,2453.288 1728.034,2453.527 1728.542,2454.006L1744.926,2469.62C1745.485,2470.157 1746.12,2470.593 1746.831,2470.929C1747.543,2471.264 1748.165,2471.489 1748.698,2471.604C1749.232,2471.719 1749.676,2471.854 1750.032,2472.007C1750.388,2472.16 1750.565,2472.352 1750.565,2472.582C1750.565,2472.889 1750.261,2473.104 1749.651,2473.229C1749.041,2473.354 1748,2473.416 1746.527,2473.416L1734.258,2473.416C1731.819,2473.416 1730.6,2473.148 1730.6,2472.611C1730.6,2472.323 1731.006,2472.065 1731.819,2471.834C1732.632,2471.604 1733.178,2471.413 1733.457,2471.259C1733.737,2471.106 1733.877,2470.933 1733.877,2470.742C1733.877,2470.473 1733.699,2470.1 1733.343,2469.62L1732.2,2468.585C1731.794,2468.183 1731.311,2467.943 1730.752,2467.866C1729.838,2467.751 1726.764,2467.694 1721.531,2467.694C1715.841,2467.694 1712.641,2467.761 1711.93,2467.895C1711.472,2467.991 1711.091,2468.192 1710.786,2468.499L1709.415,2469.735C1708.958,2470.272 1708.729,2470.675 1708.729,2470.943C1708.729,2471.077 1708.831,2471.216 1709.034,2471.36C1709.237,2471.504 1709.681,2471.691 1710.367,2471.921C1711.053,2472.151 1711.396,2472.39 1711.396,2472.64C1711.396,2473.138 1710.228,2473.387 1707.891,2473.387L1701.108,2473.387C1698.467,2473.387 1697.146,2473.148 1697.146,2472.668ZM1714.368,2465.738C1714.876,2465.834 1717.289,2465.882 1721.608,2465.882C1726.027,2465.882 1728.415,2465.825 1728.771,2465.71C1728.872,2465.671 1728.923,2465.614 1728.923,2465.537C1728.923,2465.422 1728.822,2465.278 1728.618,2465.106L1721.531,2458.233L1714.444,2465.02C1714.241,2465.23 1714.139,2465.403 1714.139,2465.537C1714.139,2465.633 1714.216,2465.7 1714.368,2465.738Z" style="fill:rgb(58,52,43);fill-rule:nonzero;"/>
        </g>
        <g transform="matrix(1,0,0,1,-10.225675,0)">
            <path d="M1750.794,2459.7C1753.842,2458.511 1757.043,2457.534 1760.396,2456.767C1761.666,2456.499 1762.606,2456.364 1763.215,2456.364C1763.723,2456.364 1764.13,2456.436 1764.435,2456.58C1764.739,2456.724 1764.892,2456.892 1764.892,2457.083L1764.892,2457.169C1764.739,2457.725 1764.612,2458.54 1764.511,2459.614L1772.055,2459.614C1773.579,2459.614 1774.341,2459.853 1774.341,2460.333C1774.341,2460.409 1774.316,2460.505 1774.265,2460.62C1773.909,2461.272 1772.919,2461.598 1771.293,2461.598L1770.988,2461.598L1764.435,2461.511C1764.435,2463.869 1764.409,2465.921 1764.358,2467.665L1764.358,2467.953C1764.358,2469.084 1764.663,2469.874 1765.273,2470.325C1765.883,2470.775 1767.051,2471.001 1768.778,2471.001C1770.506,2471.001 1772.335,2470.723 1774.265,2470.167C1774.671,2470.052 1775.053,2469.994 1775.408,2469.994C1775.662,2469.994 1775.929,2470.037 1776.208,2470.124C1776.488,2470.21 1776.627,2470.33 1776.627,2470.483C1776.627,2470.579 1776.577,2470.675 1776.475,2470.771C1775.815,2471.518 1774.468,2472.194 1772.436,2472.798C1770.404,2473.402 1767.915,2473.704 1764.968,2473.704C1761.513,2473.704 1758.846,2473.311 1756.967,2472.525C1755.087,2471.739 1754.147,2470.617 1754.147,2469.16L1754.147,2467.665C1754.147,2465 1754.223,2462.92 1754.376,2461.425L1752.318,2461.425C1750.54,2461.425 1749.651,2461.176 1749.651,2460.678C1749.651,2460.294 1750.032,2459.968 1750.794,2459.7Z" style="fill:rgb(58,52,43);fill-rule:nonzero;"/>
        </g>
        <g transform="matrix(1,0,0,1,-12.498048,0)">
            <path d="M1780.742,2472.668C1780.742,2472.4 1780.946,2472.18 1781.352,2472.007C1781.759,2471.834 1782.19,2471.696 1782.648,2471.59C1783.105,2471.485 1783.537,2471.25 1783.943,2470.886C1784.349,2470.521 1784.553,2470.033 1784.553,2469.419L1784.477,2457.802C1784.477,2457.361 1784.286,2456.987 1783.905,2456.681C1783.524,2456.374 1783.105,2456.163 1782.648,2456.048C1782.19,2455.933 1781.771,2455.804 1781.39,2455.66C1781.009,2455.516 1780.819,2455.348 1780.819,2455.157C1780.819,2454.965 1780.996,2454.807 1781.352,2454.682C1781.708,2454.558 1782.343,2454.419 1783.257,2454.265C1784.781,2453.978 1786.648,2453.695 1788.858,2453.417C1791.068,2453.139 1792.478,2453 1793.088,2453C1794.307,2453 1794.917,2453.288 1794.917,2453.863L1794.84,2457.802L1794.84,2469.419C1794.84,2470.033 1795.031,2470.521 1795.412,2470.886C1795.793,2471.25 1796.212,2471.485 1796.669,2471.59C1797.127,2471.696 1797.546,2471.839 1797.927,2472.021C1798.308,2472.204 1798.498,2472.429 1798.498,2472.697C1798.498,2473.176 1797.381,2473.416 1795.145,2473.416L1784.248,2473.416C1781.911,2473.416 1780.742,2473.167 1780.742,2472.668Z" style="fill:rgb(58,52,43);fill-rule:nonzero;"/>
        </g>
        <g transform="matrix(1,0,0,1,-15.149149,0)">
            <path d="M1803.07,2469.448C1803.07,2468.048 1804.607,2466.908 1807.681,2466.026C1810.754,2465.144 1814.958,2464.703 1820.293,2464.703C1821.614,2464.703 1823.646,2464.78 1826.389,2464.933C1825.576,2463.841 1824.586,2463.026 1823.417,2462.489C1822.249,2461.952 1820.369,2461.684 1817.778,2461.684C1815.136,2461.684 1812.037,2462.058 1808.481,2462.805C1808.125,2462.882 1807.77,2462.92 1807.414,2462.92C1807.109,2462.92 1806.817,2462.877 1806.538,2462.791C1806.258,2462.705 1806.119,2462.595 1806.119,2462.46C1806.119,2462.326 1806.271,2462.173 1806.576,2462C1807.643,2461.329 1809.561,2460.716 1812.329,2460.16C1815.098,2459.604 1818.184,2459.326 1821.588,2459.326C1823.925,2459.326 1825.957,2459.46 1827.685,2459.729C1829.412,2459.997 1830.796,2460.39 1831.838,2460.908C1832.879,2461.425 1833.692,2461.938 1834.276,2462.446C1834.861,2462.954 1835.407,2463.553 1835.915,2464.243L1839.649,2469.649C1840.055,2470.224 1840.525,2470.627 1841.059,2470.857C1841.592,2471.087 1842.265,2471.202 1843.078,2471.202L1843.23,2471.202C1844.196,2471.202 1844.678,2471.365 1844.678,2471.691C1844.678,2472.17 1843.84,2472.616 1842.164,2473.028C1840.487,2473.44 1838.709,2473.646 1836.829,2473.646C1833.629,2473.646 1831.469,2472.937 1830.352,2471.518C1826.897,2472.956 1822.452,2473.675 1817.016,2473.675C1812.85,2473.675 1809.484,2473.272 1806.919,2472.467C1804.353,2471.662 1803.07,2470.656 1803.07,2469.448ZM1812.901,2468.815C1812.952,2469.64 1813.726,2470.32 1815.225,2470.857C1816.724,2471.394 1818.692,2471.662 1821.131,2471.662C1823.316,2471.662 1825.195,2471.442 1826.77,2471.001C1828.345,2470.56 1829.133,2470.1 1829.133,2469.62C1829.133,2469.544 1829.107,2469.457 1829.056,2469.362C1828.955,2469.189 1828.713,2468.849 1828.332,2468.341C1827.951,2467.833 1827.659,2467.435 1827.456,2467.147C1827.202,2466.841 1826.491,2466.606 1825.322,2466.443C1824.154,2466.28 1822.884,2466.199 1821.512,2466.199C1818.819,2466.199 1816.711,2466.433 1815.187,2466.903C1813.663,2467.373 1812.901,2468.01 1812.901,2468.815Z" style="fill:rgb(58,52,43);fill-rule:nonzero;"/>
        </g>
        <g transform="matrix(1,0,0,1,-16.285335,0)">
            <path d="M1848.87,2468.47C1849.022,2468.432 1849.225,2468.413 1849.479,2468.413C1850.292,2468.413 1851.41,2468.662 1852.832,2469.16C1858.065,2471.096 1862.637,2472.065 1866.549,2472.065C1867.87,2472.065 1868.937,2471.94 1869.75,2471.691C1870.563,2471.442 1870.969,2471.106 1870.969,2470.684C1870.969,2470.205 1870.131,2469.755 1868.454,2469.333C1866.778,2468.911 1864.085,2468.403 1860.377,2467.809C1856.719,2467.215 1853.899,2466.592 1851.918,2465.94C1849.936,2465.288 1848.946,2464.425 1848.946,2463.352C1848.946,2462.067 1850.241,2461.075 1852.832,2460.376C1855.423,2459.676 1858.37,2459.326 1861.672,2459.326C1863.298,2459.326 1865.101,2459.393 1867.083,2459.527C1869.064,2459.662 1870.283,2459.729 1870.74,2459.729C1871.299,2459.729 1871.858,2459.662 1872.417,2459.527C1872.976,2459.393 1873.484,2459.326 1873.941,2459.326C1874.5,2459.326 1874.97,2459.403 1875.351,2459.556C1875.732,2459.709 1876.253,2460.007 1876.913,2460.448C1877.573,2460.927 1878.285,2461.502 1879.047,2462.173C1879.352,2462.46 1879.504,2462.7 1879.504,2462.892C1879.504,2463.198 1879.174,2463.409 1878.513,2463.524C1878.259,2463.563 1878.043,2463.587 1877.866,2463.596C1877.688,2463.606 1877.573,2463.611 1877.523,2463.611C1877.37,2463.611 1877.205,2463.601 1877.027,2463.582C1876.849,2463.563 1876.595,2463.515 1876.265,2463.438C1875.935,2463.361 1875.668,2463.294 1875.465,2463.237C1875.262,2463.179 1874.932,2463.083 1874.474,2462.949C1874.017,2462.815 1873.636,2462.71 1873.331,2462.633C1869.318,2461.54 1865.914,2460.994 1863.12,2460.994C1861.647,2460.994 1860.504,2461.123 1859.691,2461.382C1858.878,2461.641 1858.471,2461.952 1858.471,2462.317C1858.471,2462.777 1859.17,2463.189 1860.567,2463.553C1861.964,2463.917 1864.415,2464.377 1867.921,2464.933C1872.493,2465.7 1875.846,2466.414 1877.98,2467.076C1880.114,2467.737 1881.18,2468.547 1881.18,2469.505C1881.18,2470.732 1879.809,2471.739 1877.065,2472.525C1874.322,2473.311 1870.918,2473.704 1866.854,2473.704C1864.466,2473.704 1862.193,2473.608 1860.034,2473.416C1857.874,2473.224 1856.719,2473.128 1856.566,2473.128C1856.211,2473.128 1855.753,2473.224 1855.195,2473.416C1854.636,2473.608 1854.102,2473.704 1853.594,2473.704C1852.934,2473.704 1852.413,2473.627 1852.032,2473.474C1851.651,2473.32 1851.207,2473.013 1850.698,2472.553C1849.327,2471.307 1848.387,2470.32 1847.879,2469.592C1847.777,2469.438 1847.727,2469.304 1847.727,2469.189C1847.727,2468.844 1848.108,2468.604 1848.87,2468.47Z" style="fill:rgb(58,52,43);fill-rule:nonzero;"/>
        </g>
    </g>
    <g transform="matrix(0.22932,0,0,0.22932,456.857973,1548.653073)">
        <g transform="matrix(1.164709,0,0,1.164709,-84.314749,-83.246211)">
            <path d="M906.161,528.484C903.654,569.234 896.308,697.018 769.676,808.704C671.116,895.632 523.847,930.893 388.376,882.83C176.943,807.817 65.408,590.921 141.18,374.386C229.892,120.871 539.109,23.029 752.853,187.03C798.083,221.734 912.166,335.832 906.161,528.484Z" style="fill:rgb(58,52,43);"/>
        </g>
        <path d="M529.486,884.14C327.268,889.844 214.823,745.978 185.121,691.71C178.532,679.671 123.386,589.54 139.755,463.537C143.524,434.529 156.21,371.611 164.091,388.677C169.155,399.643 153.298,438.622 176.126,456.978C196.835,473.632 177.88,496.838 205.705,521.266C228.824,541.563 239.79,527.918 258.997,557.189C270.899,575.326 287.745,568.359 289.144,583.547C290.686,600.284 261.646,615.961 278.967,655.275C292.269,685.467 322.133,685.85 327.579,725.489C329.818,741.781 327.417,796.914 374.802,828.04C398.506,843.61 416.856,833.402 405.025,813.781C399.584,804.758 391.708,795.915 400.963,774.729C408.197,758.17 434.679,755.606 435.908,725.515C437.18,694.379 454.641,702.182 465.609,674.543C473.417,654.865 472.132,631.674 450.243,618.951C420.186,601.479 401.157,619.075 381.325,582.594C358.049,539.779 303.965,554.083 296.49,553.782C267.335,552.606 276.746,522.011 276.759,519.501C276.821,507.814 267.894,501.145 255.645,505.872C254.428,506.342 246.952,511.499 238.778,505.167C224.421,494.046 239.881,455.323 269.415,462.815C284.682,466.688 284.213,484.532 297.457,482.28C320.326,478.392 292.207,441.492 331.754,417.925C356.554,403.146 344.996,381.337 370.569,375.78C376.104,374.578 402.758,376.515 406.753,352.534C409.715,334.75 388.732,328.751 383.726,318.384C383.259,317.416 377.816,293.845 353.511,294.723C327.864,295.65 328.403,320.137 324.194,326.286C316.025,338.219 302.836,337.218 297.332,327.6C294.487,322.626 294.163,322.922 290.651,318.385C284.299,310.179 288.134,297.343 300.593,290.673C314.557,283.196 319.545,283.178 325.802,270.645C330.716,260.804 343.915,255.23 353.089,269.742C365.809,289.862 391.282,270.435 377.039,252.906C369.256,243.328 358.949,251.848 355.716,233.468C352.203,213.497 318.479,212.429 318.101,232.489C318.099,232.599 319.064,239.571 315.283,243.272C303.804,254.509 293.586,236.362 282.56,234.218C262.899,230.395 258.853,252.507 251.68,246.277C237.807,234.23 314.887,184.809 325.625,178.715C327.72,177.527 376.661,146.915 441.564,133.814C487.247,124.593 550.849,118.231 637.352,146.935C703.912,169.022 773.753,225.395 773.651,236.502C773.553,247.275 753.205,235.436 726.551,257.564C725.92,258.088 706.9,277.787 693.779,264.226C686.618,256.826 690.947,236.953 660.488,232.591C624.791,227.479 586.9,281.037 620.773,306.101C629.759,312.75 641.495,307.975 644.483,298.494C644.642,297.988 646.092,284.406 658.53,285.232C677.32,286.48 673.338,339.131 637.479,334.666C614.272,331.776 615.023,337.294 605.142,348.188C597.581,356.523 583.849,358.963 586.606,371.48C586.668,371.761 590.055,379.978 585.325,385.354C579.262,392.245 559.294,385.347 553.329,406.456C546.498,430.63 580.184,453.675 608.115,416.216C610.094,413.562 625.165,386.632 647.405,391.877C663.517,395.677 666.567,421.832 688.387,414.193C700.347,410.006 705.06,384.848 735.399,399.706C758.108,410.829 749.666,437.698 727.514,436.31C708.579,435.124 710.164,440.664 700.291,449.264C681.218,465.877 658.349,443.7 646.487,439.538C592.371,420.555 509.986,490.237 544.561,557.467C559.648,586.803 601.261,586.491 606.507,587.463C634.316,592.62 643.193,615.129 635.074,638.346C620.942,678.759 638.437,678.925 642.684,721.479C644.303,737.692 648.395,764.548 677.503,760.518C696.74,757.855 718.866,733.9 728.313,705.438C734.547,686.655 732.957,685.008 748.401,671.389C782.416,641.395 755.921,614.651 778.641,588.624C791.357,574.057 846.326,542.58 813.841,504.233C801.806,490.027 814.892,471.882 833.189,484.905C851.14,497.681 852.797,493.93 866.564,498.281C884.656,503.999 893.686,513.565 880.393,580.479C842.51,771.178 682.294,870.832 543.471,883.089C539.243,883.462 539.303,883.427 529.486,884.14Z" style="fill:#fffcf7;"/>
        <path d="M412.399,179.011C418.031,178.026 456.158,171.362 483.689,184.069C486.054,185.161 520.773,199.52 519.811,223.514C518.792,248.925 489.318,254.454 473.782,264.909C457.847,275.633 453.834,303.295 433.46,299.738C408.678,295.411 414.687,257.313 414.787,254.508C416.142,216.672 382.802,226.122 378.667,207.456C374.031,186.528 403.841,181.134 412.399,179.011Z" style="fill:rgb(58,52,43);"/>
        <path d="M805.813,672.537C804.976,676.78 798.947,707.359 780.285,720.179C763.713,731.563 751.788,704.471 772.978,677.862C781.824,666.755 790.879,650.339 802.155,658.906C806.563,662.254 805.895,671.411 805.813,672.537Z" style="fill:rgb(58,52,43);"/>
        <path d="M565.553,350.102C549.27,345.607 557.055,332.717 559.808,330.91C567.708,325.725 567.531,325.007 568.846,315.556C570.283,305.228 577.627,303.394 581.531,304.349C590.479,306.538 590.383,318.142 590.718,324.488C591.874,346.404 573.746,350.356 565.553,350.102Z" style="fill:rgb(58,52,43);"/>
    </g>
</svg>
