<svg xmlns="http://www.w3.org/2000/svg" viewBox="0 0 32 32" fill-rule="evenodd" clip-rule="evenodd">
  <rect width="32" height="32" rx="7" fill="#fffcf7"/>
  <svg x="4" y="4" width="24" height="24" viewBox="441 1529 255 255" aria-hidden="true">
    <g transform="matrix(0.22932,0,0,0.22932,456.857973,1548.653073)">
      <g transform="matrix(1.164709,0,0,1.164709,-84.314749,-83.246211)">
        <path d="M906.161,528.484C903.654,569.234 896.308,697.018 769.676,808.704C671.116,895.632 523.847,930.893 388.376,882.83C176.943,807.817 65.408,590.921 141.18,374.386C229.892,120.871 539.109,23.029 752.853,187.03C798.083,221.734 912.166,335.832 906.161,528.484Z" fill="#3a342b"/>
      </g>
      <path d="M529.486,884.14C327.268,889.844 214.823,745.978 185.121,691.71C178.532,679.671 123.386,589.54 139.755,463.537C143.524,434.529 156.21,371.611 164.091,388.677C169.155,399.643 153.298,438.622 176.126,456.978C196.835,473.632 177.88,496.838 205.705,521.266C228.824,541.563 239.79,527.918 258.997,557.189C270.899,575.326 287.745,568.359 289.144,583.547C290.686,600.284 261.646,615.961 278.967,655.275C292.269,685.467 322.133,685.85 327.579,725.489C329.818,741.781 327.417,796.914 374.802,828.04C398.506,843.61 416.856,833.402 405.025,813.781C399.584,804.758 391.708,795.915 400.963,774.729C408.197,758.17 434.679,755.606 435.908,725.515C437.18,694.379 454.641,702.182 465.609,674.543C473.417,654.865 472.132,631.674 450.243,618.951C420.186,601.479 401.157,619.075 381.325,582.594C358.049,539.779 303.965,554.083 296.49,553.782C267.335,552.606 276.746,522.011 276.759,519.501C276.821,507.814 267.894,501.145 255.645,505.872C254.428,506.342 246.952,511.499 238.778,505.167C224.421,494.046 239.881,455.323 269.415,462.815C284.682,466.688 284.213,484.532 297.457,482.28C320.326,478.392 292.207,441.492 331.754,417.925C356.554,403.146 344.996,381.337 370.569,375.78C376.104,374.578 402.758,376.515 406.753,352.534C409.715,334.75 388.732,328.751 383.726,318.384C383.259,317.416 377.816,293.845 353.511,294.723C327.864,295.65 328.403,320.137 324.194,326.286C316.025,338.219 302.836,337.218 297.332,327.6C294.487,322.626 294.163,322.922 290.651,318.385C284.299,310.179 288.134,297.343 300.593,290.673C314.557,283.196 319.545,283.178 325.802,270.645C330.716,260.804 343.915,255.23 353.089,269.742C365.809,289.862 391.282,270.435 377.039,252.906C369.256,243.328 358.949,251.848 355.716,233.468C352.203,213.497 318.479,212.429 318.101,232.489C318.099,232.599 319.064,239.571 315.283,243.272C303.804,254.509 293.586,236.362 282.56,234.218C262.899,230.395 258.853,252.507 251.68,246.277C237.807,234.23 314.887,184.809 325.625,178.715C327.72,177.527 376.661,146.915 441.564,133.814C487.247,124.593 550.849,118.231 637.352,146.935C703.912,169.022 773.753,225.395 773.651,236.502C773.553,247.275 753.205,235.436 726.551,257.564C725.92,258.088 706.9,277.787 693.779,264.226C686.618,256.826 690.947,236.953 660.488,232.591C624.791,227.479 586.9,281.037 620.773,306.101C629.759,312.75 641.495,307.975 644.483,298.494C644.642,297.988 646.092,284.406 658.53,285.232C677.32,286.48 673.338,339.131 637.479,334.666C614.272,331.776 615.023,337.294 605.142,348.188C597.581,356.523 583.849,358.963 586.606,371.48C586.668,371.761 590.055,379.978 585.325,385.354C579.262,392.245 559.294,385.347 553.329,406.456C546.498,430.63 580.184,453.675 608.115,416.216C610.094,413.562 625.165,386.632 647.405,391.877C663.517,395.677 666.567,421.832 688.387,414.193C700.347,410.006 705.06,384.848 735.399,399.706C758.108,410.829 749.666,437.698 727.514,436.31C708.579,435.124 710.164,440.664 700.291,449.264C681.218,465.877 658.349,443.7 646.487,439.538C592.371,420.555 509.986,490.237 544.561,557.467C559.648,586.803 601.261,586.491 606.507,587.463C634.316,592.62 643.193,615.129 635.074,638.346C620.942,678.759 638.437,678.925 642.684,721.479C644.303,737.692 648.395,764.548 677.503,760.518C696.74,757.855 718.866,733.9 728.313,705.438C734.547,686.655 732.957,685.008 748.401,671.389C782.416,641.395 755.921,614.651 778.641,588.624C791.357,574.057 846.326,542.58 813.841,504.233C801.806,490.027 814.892,471.882 833.189,484.905C851.14,497.681 852.797,493.93 866.564,498.281C884.656,503.999 893.686,513.565 880.393,580.479C842.51,771.178 682.294,870.832 543.471,883.089C539.243,883.462 539.303,883.427 529.486,884.14Z" fill="#fffcf7"/>
      <path d="M412.399,179.011C418.031,178.026 456.158,171.362 483.689,184.069C486.054,185.161 520.773,199.52 519.811,223.514C518.792,248.925 489.318,254.454 473.782,264.909C457.847,275.633 453.834,303.295 433.46,299.738C408.678,295.411 414.687,257.313 414.787,254.508C416.142,216.672 382.802,226.122 378.667,207.456C374.031,186.528 403.841,181.134 412.399,179.011Z" fill="#3a342b"/>
      <path d="M805.813,672.537C804.976,676.78 798.947,707.359 780.285,720.179C763.713,731.563 751.788,704.471 772.978,677.862C781.824,666.755 790.879,650.339 802.155,658.906C806.563,662.254 805.895,671.411 805.813,672.537Z" fill="#3a342b"/>
      <path d="M565.553,350.102C549.27,345.607 557.055,332.717 559.808,330.91C567.708,325.725 567.531,325.007 568.846,315.556C570.283,305.228 577.627,303.394 581.531,304.349C590.479,306.538 590.383,318.142 590.718,324.488C591.874,346.404 573.746,350.356 565.553,350.102Z" fill="#3a342b"/>
    </g>
  </svg>
</svg>
