<svg width="174" height="76" viewBox="0 0 174 76" fill="none" xmlns="http://www.w3.org/2000/svg">
  <g clip-path="url(#c)">
    <path d="M86.67 0L0 37.81L86.68 75.11L173.35 37.31L86.67 0Z" fill="#F4F4F5"/>
    <path d="M128.79 31.06V44.53L138.79 40.17V44.81L124.54 51.02V24.57L138.79 30.78V35.42L128.79 31.06ZM108.79 22.34V35.68H116.29V39.93H108.79V53.26L118.79 48.9V53.53L104.54 59.74V15.85L118.79 22.06V26.7L108.79 22.34ZM98.79 13.33V17.98L88.79 13.61V66.62L86.67 67.54L84.54 66.62V13.61L74.54 17.97V13.33L86.67 8.04004L98.79 13.33ZM65.83 35.05L68.79 33.75V15.84L54.54 22.06V53.53L58.79 55.38V38.11L61.91 36.74L69.61 60.11L72.45 61.34H72.74V61.48L74.84 62.39L65.83 35.05ZM64.54 30.96L58.79 33.47V24.84L64.54 22.33V30.96ZM34.54 30.78V44.81L38.79 46.66V42.07H44.54V49.17L48.79 51.02V24.57L34.54 30.78ZM44.54 37.82H38.79V33.56L44.54 31.05V37.82Z" fill="#231F20"/>
  </g>
  <defs><clipPath id="c"><rect width="173.35" height="75.11" fill="white"/></clipPath></defs>
</svg>