<?xml version="1.0" encoding="UTF-8"?>
<svg id="Layer_1" data-name="Layer 1" xmlns="http://www.w3.org/2000/svg" version="1.1" viewBox="0 0 138.53 138.47">
  <defs>
    <style>
      .cls-1 {
        fill: #231f20;
        stroke-width: 0px;
      }
    </style>
  </defs>
  <path class="cls-1" d="M41.54,97c7.39,7.41,17.24,11.49,27.72,11.49s20.33-4.07,27.75-11.51c7.64-7.64,11.46-17.69,11.46-27.72,0-10.05-3.82-20.11-11.46-27.77-7.41-7.41-17.27-11.49-27.75-11.49-10.48,0-20.33,4.07-27.72,11.49-15.33,15.31-15.33,40.19,0,55.49v.03Z"/>
  <path class="cls-1" d="M11.51,127c14.53,14.53,37.7,15.26,53.1,2.19L9.32,73.9C3.29,80.96,0,89.86,0,99.26c0,10.48,4.07,20.33,11.51,27.75Z"/>
  <path class="cls-1" d="M127.02,11.47c-14.5-14.53-37.7-15.26-53.1-2.19l55.29,55.32c6.21-7.29,9.3-16.34,9.3-25.38,0-10.05-3.82-20.11-11.49-27.75Z"/>
  <path class="cls-1" d="M11.49,11.47c-14.5,14.53-15.26,37.72-2.16,53.13L64.62,9.28C49.21-3.78,26.04-3.06,11.49,11.47Z"/>
  <path class="cls-1" d="M138.53,99.26c0-9.4-3.29-18.3-9.32-25.36l-55.29,55.29c15.41,13.07,38.6,12.34,53.1-2.19,7.44-7.41,11.51-17.27,11.51-27.75Z"/>
</svg>