<?xml version="1.0" encoding="UTF-8"?>
<svg id="Layer_1" data-name="Layer 1" xmlns="http://www.w3.org/2000/svg" viewBox="0 0 9.13 8.06">
  <path fill="#ffffff" d="M5.75,8.06c-.5,0-.95-.26-1.19-.68-.24.42-.69.68-1.19.68-.58,0-1.08-.35-1.29-.89L.09,1.86C-.07,1.44-.01.96.24.59c.26-.37.68-.59,1.13-.59.57,0,1.09.36,1.29.89l1.9,5.05L6.46.89c.2-.53.72-.89,1.29-.89.45,0,.88.22,1.13.59.26.37.32.85.16,1.27l-2,5.31c-.2.54-.71.89-1.29.89ZM4.84,6.69l.11.3c.15.41.51.55.79.55s.64-.14.79-.55l2-5.31c.1-.26.06-.55-.1-.78-.16-.23-.42-.37-.7-.37-.35,0-.67.22-.79.55l-2.11,5.61ZM1.38.53c-.28,0-.54.13-.7.37-.16.23-.2.52-.1.78l2,5.31c.15.41.51.55.79.55s.64-.14.79-.55l.11-.3L2.17,1.08c-.12-.33-.44-.55-.79-.55Z"/>
</svg>