<?xml version="1.0" encoding="UTF-8"?>
<svg id="Layer_1" data-name="Layer 1" xmlns="http://www.w3.org/2000/svg" version="1.1" viewBox="0 0 237 34.48">
  <defs>
    <style>
      .cls-1 {
        fill: #231f20;
        stroke-width: 0px;
      }
    </style>
  </defs>
  <g>
    <polygon class="cls-1" points="17.24 17.24 0 17.24 17.24 0 17.24 17.24"/>
    <polygon class="cls-1" points="17.24 17.24 34.48 17.24 17.24 34.48 17.24 17.24"/>
  </g>
  <g>
    <path class="cls-1" d="M55.57,3.33c2.77,0,5.1.35,6.97,1.05,1.88.7,3.39,1.67,4.53,2.9,1.13,1.24,1.95,2.65,2.44,4.24s.74,3.28.74,5.06-.27,3.44-.8,5.06c-.53,1.62-1.38,3.06-2.55,4.32-1.17,1.26-2.68,2.26-4.55,2.98-1.86.73-4.12,1.09-6.79,1.09h-10.69V3.33h10.69ZM48.82,26.45h6.7c2.11,0,3.85-.28,5.23-.84,1.37-.56,2.46-1.32,3.27-2.26s1.38-2.01,1.73-3.19c.34-1.18.51-2.37.51-3.58s-.17-2.43-.51-3.58c-.35-1.15-.92-2.19-1.73-3.11s-1.9-1.64-3.27-2.18c-1.37-.53-3.11-.8-5.23-.8h-6.7v19.54Z"/>
    <path class="cls-1" d="M83.21,30.48c-2,0-3.84-.43-5.51-1.28s-3-2.07-3.99-3.66-1.48-3.5-1.48-5.72.49-4.17,1.48-5.78,2.32-2.83,3.99-3.68c1.67-.85,3.51-1.28,5.51-1.28s3.83.42,5.47,1.28c1.65.85,2.96,2.08,3.95,3.68.98,1.6,1.48,3.53,1.48,5.78s-.5,4.13-1.48,5.72c-.99,1.59-2.3,2.81-3.95,3.66-1.64.85-3.47,1.28-5.47,1.28ZM83.21,27.07c1.24,0,2.38-.28,3.43-.84s1.91-1.39,2.55-2.47c.64-1.08.96-2.39.96-3.93s-.32-2.89-.96-3.99c-.65-1.1-1.5-1.93-2.55-2.51s-2.2-.87-3.43-.87-2.38.28-3.45.84c-1.07.56-1.93,1.39-2.59,2.49s-.99,2.44-.99,4.03.33,2.85.97,3.93,1.5,1.91,2.57,2.47c1.07.56,2.24.84,3.5.84Z"/>
    <path class="cls-1" d="M116.69,22.21c-.17,1.7-.7,3.18-1.63,4.42-.92,1.25-2.11,2.2-3.59,2.86-1.48.66-3.13.99-4.94.99-2,0-3.84-.42-5.51-1.26-1.67-.84-3.01-2.06-4.01-3.66-1-1.61-1.5-3.52-1.5-5.74s.5-4.17,1.5-5.78c1-1.6,2.34-2.83,4.01-3.68,1.67-.85,3.51-1.28,5.51-1.28,1.81,0,3.44.33,4.89.99,1.45.66,2.65,1.6,3.58,2.82.93,1.22,1.49,2.68,1.68,4.38h-3.58c-.47-1.48-1.29-2.65-2.49-3.52-1.19-.87-2.56-1.3-4.09-1.3-1.26,0-2.43.29-3.52.87s-1.95,1.41-2.59,2.49c-.65,1.08-.97,2.42-.97,4.01s.32,2.85.97,3.93c.64,1.08,1.5,1.91,2.57,2.47,1.07.56,2.25.84,3.54.84,1.75,0,3.18-.43,4.28-1.28,1.09-.85,1.88-2.04,2.34-3.58h3.54Z"/>
    <path class="cls-1" d="M117.26,3.33h23.41v3.54h-9.71v23.16h-3.99V6.87h-9.71v-3.54Z"/>
    <path class="cls-1" d="M139.52,9.5h3.95v5.8c.13-.55.34-1.14.62-1.77.33-.74.77-1.45,1.32-2.12.55-.67,1.23-1.23,2.06-1.67.82-.44,1.81-.66,2.96-.66v3.91c-1.42,0-2.64.33-3.64.99s-1.79,1.47-2.37,2.43c-.41.66-.73,1.32-.94,1.97v11.64h-3.95V9.5Z"/>
    <path class="cls-1" d="M160.83,30.44c-1.76,0-3.36-.45-4.81-1.36-1.46-.91-2.61-2.16-3.45-3.76-.85-1.61-1.27-3.45-1.27-5.53s.43-3.93,1.29-5.53c.86-1.6,2.05-2.86,3.56-3.78,1.51-.92,3.19-1.38,5.06-1.38,2.06,0,3.66.48,4.79,1.44,1.14.96,1.93,2.25,2.37,3.87.11.3.19.62.25.95v-5.84h3.95v20.52h-3.62l-.08-.74c-.05-.52-.11-1.14-.16-1.85-.06-.71-.08-1.34-.08-1.89v-2.06c-.27,1.15-.7,2.25-1.27,3.29-.61,1.1-1.44,1.98-2.51,2.65-1.07.67-2.4,1.01-3.99,1.01ZM161.93,27.02c1.46,0,2.68-.32,3.68-.97,1-.64,1.75-1.51,2.24-2.61.49-1.1.74-2.32.74-3.66,0-1.45-.25-2.73-.76-3.83-.51-1.1-1.26-1.95-2.26-2.55s-2.22-.91-3.64-.91c-2.14,0-3.79.69-4.96,2.06-1.17,1.37-1.75,3.11-1.75,5.22,0,1.43.28,2.68.87,3.77.57,1.08,1.36,1.93,2.36,2.55,1,.62,2.16.93,3.48.93Z"/>
    <path class="cls-1" d="M176.04,9.5h3.95v5.84c.13-.57.33-1.12.57-1.64.47-.93,1.05-1.75,1.75-2.45s1.51-1.23,2.44-1.6,1.95-.56,3.05-.56,2.19.17,3.12.49,1.73.82,2.39,1.46c.66.64,1.17,1.44,1.54,2.39.37.95.56,2.02.56,3.23v13.37h-3.91v-12.5c0-1.62-.39-2.83-1.17-3.64-.78-.81-1.97-1.21-3.56-1.21-1.23,0-2.36.29-3.37.86-1.02.58-1.85,1.33-2.51,2.26-.41.63-.71,1.3-.91,2.01v12.22h-3.95V9.5Z"/>
    <path class="cls-1" d="M198.05,23.36h3.62c.13,1.1.63,1.99,1.48,2.69.85.7,2.05,1.05,3.58,1.05.99,0,1.76-.12,2.3-.35.55-.23.94-.55,1.17-.97s.35-.86.35-1.36c0-.63-.17-1.12-.49-1.46-.33-.34-.8-.63-1.4-.86-.61-.23-1.32-.46-2.14-.68-.91-.25-1.81-.54-2.71-.87-.91-.33-1.74-.73-2.49-1.19s-1.36-1.05-1.81-1.75c-.46-.7-.68-1.56-.68-2.57,0-.85.18-1.64.55-2.39.37-.74.91-1.38,1.61-1.91.7-.53,1.51-.95,2.44-1.23s1.96-.43,3.09-.43c1.56,0,2.88.28,3.95.84s1.89,1.35,2.44,2.36c.56,1.02.86,2.18.89,3.5h-3.45c-.19-1.15-.59-1.99-1.19-2.53-.61-.53-1.51-.8-2.71-.8s-2.09.24-2.71.7c-.63.47-.95,1.1-.95,1.89,0,.6.22,1.09.66,1.46s1.03.69,1.77.97c.74.27,1.57.56,2.51.87.88.3,1.72.61,2.53.92s1.54.69,2.18,1.11,1.16.97,1.52,1.64c.37.67.55,1.5.55,2.49,0,1.21-.3,2.26-.91,3.15-.6.89-1.47,1.58-2.61,2.08-1.14.49-2.52.74-4.13.74-1.48,0-2.73-.18-3.76-.54-1.03-.35-1.9-.82-2.6-1.4-.7-.57-1.23-1.19-1.6-1.83-.37-.64-.62-1.27-.74-1.87s-.16-1.1-.1-1.48Z"/>
    <path class="cls-1" d="M221.74,1.03v4.24h-4.89V1.03h4.89ZM217.34,9.5h3.91v20.52h-3.91V9.5Z"/>
    <path class="cls-1" d="M223.71,9.5h4.69v-5.43h3.91v5.43h4.69v3.41h-4.69v17.11h-3.91V12.92h-4.69v-3.41Z"/>
  </g>
</svg>